<svg version="1" xmlns="http://www.w3.org/2000/svg" width="933.333" height="933.333" viewBox="0 0 700.000000 700.000000"><path d="M336.9 27c-26.9 2.4-52.7 11.4-74.4 25.8-9.9 6.6-22.5 16.7-22.5 18.1 0 .5 3.6 1.4 8 2 18.9 2.8 41.7 9.7 59.8 18.1l9 4.2 8.9-2.3c12.8-3.4 36-3.4 48.3-.1 10.5 2.8 24.7 9.6 32.6 15.6 7.9 5.9 19.2 17.9 24 25.3 8.9 13.8 16 32.9 19.1 50.7 1.6 9.8 2 10.9 4.3 11.8 1.3.5 10.6 1.4 20.5 1.9s22.7 1.4 28.5 1.9c7.8.6 10.7.6 11.3-.3 1.7-2.6-2.4-31-6.9-47.1-3.2-11.5-8.4-24.6-14.6-36.9C467.5 65 419.2 32 362.8 27c-12.4-1.1-13.3-1.1-25.9 0z"/><path d="M194.5 90.5c-37.2 6.9-72.5 27.3-94.7 54.6-22.2 27.5-33.3 54.5-36.9 89.3-1 10.4-.7 26.1.5 27.3.2.3 5.3-3.8 11.3-8.9 12.7-11 27.2-20.9 43.7-29.8l11.9-6.5 3.3-7.2c10.6-23.3 29.3-41.4 52.6-50.7 11.4-4.7 21.7-6.6 34.6-6.6 20.4 0 37.5 4.5 59.4 15.6l13.1 6.7 8.6-8.9c10.4-10.8 33.1-36.5 33.1-37.6 0-.4-4.4-3.6-9.7-7.1-22.9-15-49.3-25.3-77.7-30.2-11-1.9-42.9-1.9-53.1 0zM500 90.6c0 .3 3.8 8.3 8.5 17.7 8.3 16.9 14.5 33.7 18.1 49l1.8 7.8 8.4 6.6c23.6 18.4 35.7 42 36.8 71.8.5 11.6.3 15.6-1.4 23.7-4.2 20.1-15.6 41.1-32.2 59.1l-6.4 6.9 1.8 3.1c1.8 3.4 4.4 7.3 22.4 32.7 6.3 8.8 11.7 16 12 16 1.7 0 14.2-12.3 21.7-21.3 27.4-32.7 42.4-67.2 45.6-105 3.3-40.4-10.7-82.6-38.3-115.4-20.9-24.8-53.2-44-86.6-51.3-9.1-2-12.2-2.4-12.2-1.4zM376.7 119.3c-17.1 10.6-33.9 25.8-50.8 45.8-15.7 18.7-27.2 28.1-44.7 36.9-5.3 2.7-11 5.4-12.6 6l-2.9 1.1.6 7.7c.4 4.2 1.8 13.5 3.2 20.7 1.4 7.1 3.2 17.7 4 23.4.8 5.7 1.7 10.7 2 10.9.8.9 23.4-7.7 32.9-12.5 26-13.1 42.7-26.7 67.5-55.3 14.1-16.2 26.4-26.6 41.9-35.5 9.6-5.5 9.4-4.4 2.5-17.5-7.6-14.3-17.6-25.1-30.1-32.6-3.1-1.9-5.8-3.4-6.1-3.3-.3 0-3.6 1.9-7.4 4.2z"/><path d="M207.5 170.4c-3.8.8-9.9 2.5-13.5 3.7-7.7 2.9-7.6 2.5-8.6 23.9-.8 17.9.5 32.4 4.8 53.6 3.1 14.9 3.3 17.1 3.2 35.4-.1 17.9-.3 20.3-2.7 29.3-1.5 5.3-2.7 10.4-2.7 11.1 0 1.7 8.6 7.2 24.5 15.6 6.6 3.5 15.6 8.6 20 11.2 4.4 2.6 8.5 4.8 9.2 4.8 1.5 0 6.6-13.2 9.7-25.2 4.8-18.5 5.9-29.1 5.3-53.2-.4-19.8-.8-23.7-3.6-37.6-5.1-24.6-5.5-34.9-2.5-62.6.7-7 1.3-6.4-9.4-8.9-9.5-2.3-25.2-2.7-33.7-1.1zM398.9 204.7c-4.1 4.3-10.2 10.9-13.4 14.8-3.3 3.8-9.2 10.5-13.2 14.7-4 4.3-7.3 8.1-7.3 8.6 0 1.3 14.9 10.6 25.6 16 26.8 13.4 47.8 18.5 84.3 20.2 26.8 1.4 36.1 2.9 52.6 8.6 7.2 2.5 13.7 4.8 14.6 5 1.2.4 2.7-1.9 6.2-9.4 6.7-14.5 8.1-20.5 8.1-35.2.1-6.9-.2-13.7-.6-15.1-1-3.3-6.2-5.7-21.8-9.7-16.4-4.3-28.6-6-52-7.2-31.8-1.6-41.1-3.6-60.9-13.1-6.8-3.2-12.9-5.9-13.5-5.9-.6 0-4.5 3.5-8.7 7.7zM155 226.4c-21 7.2-40.6 17.5-57.5 30.1-11 8.2-30.7 28.2-38.2 38.9C48 311.3 38 334.9 33.4 356c-2.9 13.2-2.7 48.8.4 62.5 3.2 14.3 6.7 24.4 12.7 37 7.5 15.5 16.2 28 28.4 40.8 9.4 9.8 24.8 22.7 27.1 22.7.5 0 .6-7.1.3-15.8-.7-17.9.7-34.9 4.2-52.5l2.3-11.8-4.8-10.2c-7.7-16.1-9.5-24.2-9.4-42.7 0-13.7.3-16.5 2.6-24.1 5.5-18.2 12.9-30.8 25.3-43.2 12-12 26.3-21.5 44.5-29.3l9.5-4.1-.2-7.6c-.2-4.2-1.4-13.2-2.8-20.1-2.1-10.3-5.4-30.8-5.5-33.9 0-1.3-3.4-.6-13 2.7zM443 299.6c0 2.8.9 10.7 2.1 17.4 5.5 32.7 18.2 60.6 40.6 89.6 12.3 16 19.5 29.4 25.6 47.9 4 12 4.1 12 18 8 14.6-4.1 24-9.3 34.2-18.8l8.8-8.2-4.6-11.6c-8.2-20.9-15.7-34.1-31.3-55.1-16.1-21.5-23-35.7-28-57.7-1.3-5.7-2.7-10.8-3.2-11.3-1.5-1.5-11.4-2.6-28.2-3.3-9.1-.4-20.4-1-25.2-1.4l-8.8-.7v5.2z"/><path d="M645.1 307.1c-10.4 24.5-20.1 42.2-31.8 57.5l-7 9.1-.6 14.4c-.7 18-2.9 26.7-10.2 41.4-13.9 27.7-36.7 44.7-70 52.1-5.9 1.4-13.3 1.9-28 2.1l-20 .2-2.3 5.7c-1.3 3.2-4.5 13.9-7.2 23.8-2.7 10-5.8 20.8-7 24-1.1 3.3-1.8 6.1-1.6 6.4.3.2 4.9 1.1 10.3 1.9 7.3 1.1 15.7 1.3 32.8 1 20.1-.4 24.6-.8 35.5-3.1 38.5-8.3 68.6-25.5 92.5-53.1 18.3-21 29.7-44.6 36.2-74.5 2.6-12 2.6-46.6 0-59.4-2.5-12.4-8-28.3-13.9-40.1-5.8-11.9-6.4-12.6-7.7-9.4zM142.9 323.3c-13.4 11.1-23.6 25.6-28.4 40.7l-1.8 5.5 8.4 7.8c15.9 14.9 28.1 23.4 52.9 36.7 8.5 4.5 18.7 10.5 22.6 13.2 9 6.1 21.6 18.5 29 28.3 5.5 7.3 6 7.7 9.1 7.2 1.8-.3 12.2-4.4 23-9 10.9-4.6 22.6-9.4 26.1-10.7 3.4-1.2 6.2-2.8 6.2-3.4 0-1.6-8.2-14.7-14.9-23.6-7.4-9.9-26.6-29.2-36.6-36.7-10-7.4-19-12.9-37.7-22.8-17.5-9.3-28.3-17.3-40.1-29.4-4.9-5-9.4-9.1-10.1-9.1-.6 0-4.1 2.4-7.7 5.3zM444.3 394.2c-14.9 14.4-27.9 32.1-37.6 51.4-6.5 13-11.2 26-16.3 45.2-6.3 23.8-10.4 33.4-21.4 50.1-3.3 5.1-5.9 9.9-5.6 10.6 1.1 2.9 13.6 11.8 23.1 16.4 10.5 5.1 20.3 7.9 29.4 8.3 5.4.3 5.5.3 8.4-4 10.7-15.8 20.6-38.9 26.7-62.7 7.6-29.2 15.1-44.9 29.8-62 2.9-3.3 5.2-6.9 5.2-8.1 0-2.1-6.4-11.8-18.6-28.4-3.8-5.2-8.9-12.5-11.3-16.3-2.4-3.7-4.5-6.7-4.8-6.7-.3 0-3.4 2.8-7 6.2zM135.1 416.7c-4.9 10.7-11 32.9-13.7 49.8-2.2 14.1-2.2 41 0 55.3 4.7 30.6 17.5 58.1 38 81.4 22.6 25.7 52.9 43.3 87.6 50.8 12.3 2.7 35.9 3.7 49.7 2.1 11.1-1.3 28.9-5.3 30.4-6.8.6-.6-1.7-2.9-6.6-6.2-11.9-8.2-25.5-20.1-35.1-30.7-18.5-20.4-15.9-18.3-25.5-20.4-19.7-4.3-36.5-13.6-50-27.7-9.2-9.7-13-15.1-17.9-25.6-6.2-13.5-8.2-22.9-8.7-40.7-.5-17 .7-27.4 5.2-42.9 1.4-4.7 2.5-9 2.5-9.6 0-1.8-9.1-7.6-25.5-16.3-8.2-4.4-17.8-9.6-21.2-11.6-3.4-2-6.6-3.6-7.1-3.6s-1.4 1.2-2.1 2.7z"/><path d="M323.5 451.5c-19.6 2.9-33.8 7.3-58 17.7-23.4 10.2-33.3 12.9-53.2 14.7-5.6.5-10.8 1.3-11.4 1.7-1.8 1.1-.4 24.3 2.1 32.8 2.3 8.3 6.8 17.9 11 24.1 2.4 3.6 3.7 4.5 5.9 4.5 5.4 0 26.6-4 37.4-7.1 10.4-2.9 15.2-4.7 41.3-15.7 18.6-7.9 28.9-10.2 49.5-11l17.3-.7 2.2-6c1.2-3.3 4.8-15 7.9-26 3.2-11 6.2-21.7 6.8-23.7.6-2.1.9-3.9.6-4.2-.2-.2-4.8-.9-10.1-1.5-12.9-1.4-38.1-1.2-49.3.4zM317.5 535.4c-3.8 1.2-14.4 5.4-23.5 9.3-9.1 3.9-18.7 7.9-21.5 9-2.7 1.1-5.1 2.6-5.3 3.4-.3 1.9 14.2 24.1 21.8 33.3 22.6 27.5 52.1 48.6 81.5 58.4 19.1 6.4 28 7.7 50.5 7.7 17.5 0 22.1-.4 31.2-2.3 15.1-3.2 24.5-6.5 38.3-13.2 30-14.5 53.4-36.5 69.8-65.5 5.1-9.2 10.1-20.5 9.3-21.2-.3-.3-7 1-14.8 3-7.9 2-16.8 4.1-19.8 4.6-7.5 1.5-26.8 3.1-36.6 3.1h-8l-6.5 5.6c-21.2 18.4-50.7 26.7-78 21.9-28.4-4.9-51.7-20.6-73.3-49.3-4.2-5.6-7.8-10.2-7.9-10.2-.1.1-3.3 1.1-7.2 2.4z"/></svg>